<?xml version="1.0" encoding="UTF-8" standalone="no"?>
<svg
   xmlns:dc="http://purl.org/dc/elements/1.1/"
   xmlns:cc="http://creativecommons.org/ns#"
   xmlns:rdf="http://www.w3.org/1999/02/22-rdf-syntax-ns#"
   xmlns:svg="http://www.w3.org/2000/svg"
   xmlns="http://www.w3.org/2000/svg"
   xmlns:sodipodi="http://sodipodi.sourceforge.net/DTD/sodipodi-0.dtd"
   xmlns:inkscape="http://www.inkscape.org/namespaces/inkscape"
   width="276"
   height="276"
   version="1.1"
   id="svg6"
   sodipodi:docname="no-echo.svg"
   inkscape:version="0.92.4 (5da689c313, 2019-01-14)">
  <metadata
     id="metadata12">
    <rdf:RDF>
      <cc:Work
         rdf:about="">
        <dc:format>image/svg+xml</dc:format>
        <dc:type
           rdf:resource="http://purl.org/dc/dcmitype/StillImage" />
        <dc:title></dc:title>
      </cc:Work>
    </rdf:RDF>
  </metadata>
  <defs
     id="defs10" />
  <sodipodi:namedview
     pagecolor="#000000"
     bordercolor="#666666"
     borderopacity="1"
     objecttolerance="10"
     gridtolerance="10"
     guidetolerance="10"
     inkscape:pageopacity="0"
     inkscape:pageshadow="2"
     inkscape:window-width="1920"
     inkscape:window-height="1025"
     id="namedview8"
     showgrid="false"
     inkscape:zoom="1.084999"
     inkscape:cx="138"
     inkscape:cy="138"
     inkscape:window-x="0"
     inkscape:window-y="0"
     inkscape:window-maximized="1"
     inkscape:current-layer="svg6" />
  <path
     style="font-style:normal;font-variant:normal;font-weight:bold;font-stretch:normal;font-size:131.3210907px;line-height:75%;font-family:'Liberation Mono';-inkscape-font-specification:'Liberation Mono, Bold';font-variant-ligatures:normal;font-variant-caps:normal;font-variant-numeric:normal;font-feature-settings:normal;text-align:start;letter-spacing:0px;word-spacing:0px;writing-mode:lr-tb;text-anchor:start;fill:#ffffff;fill-opacity:1;stroke:none;stroke-width:3.28302693px;stroke-linecap:butt;stroke-linejoin:miter;stroke-opacity:1"
     d="M 76.238281 56.683594 L 89.095703 69.541016 L 126.07812 69.541016 L 126.07812 56.683594 L 76.238281 56.683594 z M 55.5 75.054688 L 55.5 132.75586 L 113.20117 132.75586 L 100.34375 119.89844 L 77.009766 119.89844 L 77.009766 100.66992 L 81.115234 100.66992 L 55.5 75.054688 z M 107.36719 87.8125 L 120.22461 100.66992 L 121.63086 100.66992 L 121.63086 87.8125 L 107.36719 87.8125 z "
     id="path837" />
  <path
     inkscape:connector-curvature="0"
     id="path839"
     style="font-style:normal;font-variant:normal;font-weight:bold;font-stretch:normal;font-size:131.3210907px;line-height:75%;font-family:'Liberation Mono';-inkscape-font-specification:'Liberation Mono, Bold';font-variant-ligatures:normal;font-variant-caps:normal;font-variant-numeric:normal;font-feature-settings:normal;text-align:start;letter-spacing:0px;word-spacing:0px;writing-mode:lr-tb;text-anchor:start;fill:#ffffff;fill-opacity:1;stroke:none;stroke-width:3.28302693px;stroke-linecap:butt;stroke-linejoin:miter;stroke-opacity:1"
     d="m 162.75365,94.353384 q 0,12.687966 5.10384,19.567666 5.10384,6.8797 15.23862,6.8797 11.81175,0 17.4989,-13.7594 L 220.5,109.97369 q -9.6973,23.90977 -37.62263,23.90977 -20.48828,0 -31.27927,-10.03759 -10.71807,-10.09399 -10.71807,-29.492486 0,-38.853388 41.41405,-38.853388 13.56164,0 22.67566,5.526315 9.18691,5.526317 13.48873,16.409776 l -19.83208,3.721805 q -2.11446,-5.977445 -6.34336,-9.248121 -4.2289,-3.327068 -9.6973,-3.327068 -19.83208,0 -19.83208,25.770681 z" />
  <path
     style="font-style:normal;font-variant:normal;font-weight:bold;font-stretch:normal;font-size:131.3210907px;line-height:75%;font-family:'Liberation Mono';-inkscape-font-specification:'Liberation Mono, Bold';font-variant-ligatures:normal;font-variant-caps:normal;font-variant-numeric:normal;font-feature-settings:normal;text-align:start;letter-spacing:0px;word-spacing:0px;writing-mode:lr-tb;text-anchor:start;fill:#ffffff;fill-opacity:1;stroke:none;stroke-width:3.28302693px;stroke-linecap:butt;stroke-linejoin:miter;stroke-opacity:1"
     d="M 55.572266 143.30078 L 55.572266 206.64062 C 59.401343 211.21667 63.593712 215.47744 68.111328 219.37305 L 77.082031 219.37305 L 77.082031 187.00391 L 103.54883 187.00391 L 103.54883 219.37305 L 125.05859 219.37305 L 125.05859 143.30078 L 103.54883 143.30078 L 103.54883 173.24414 L 77.082031 173.24414 L 77.082031 143.30078 L 55.572266 143.30078 z "
     id="path841" />
  <path
     style="font-style:normal;font-variant:normal;font-weight:bold;font-stretch:normal;font-size:131.3210907px;line-height:75%;font-family:'Liberation Mono';-inkscape-font-specification:'Liberation Mono, Bold';font-variant-ligatures:normal;font-variant-caps:normal;font-variant-numeric:normal;font-feature-settings:normal;text-align:start;letter-spacing:0px;word-spacing:0px;writing-mode:lr-tb;text-anchor:start;fill:#ffffff;fill-opacity:1;stroke:none;stroke-width:3.28302693px;stroke-linecap:butt;stroke-linejoin:miter;stroke-opacity:1"
     d="M 179.88867 142.11719 C 173.8868 142.11719 168.55562 142.86038 163.86133 144.30664 L 175.26953 155.71484 C 176.69548 155.37737 178.2308 155.19922 179.88867 155.19922 C 190.97047 155.19922 196.85235 162.79373 197.53711 177.98242 L 217.05273 197.49805 C 218.6093 192.74242 219.40625 187.28204 219.40625 181.08203 C 219.40625 168.1121 216.00435 158.3768 209.19922 151.87305 C 202.39409 145.36928 192.62398 142.11719 179.88867 142.11719 z M 143.30273 162.85742 C 141.3051 167.98641 140.29688 174.05491 140.29688 181.08203 C 140.29688 194.05196 143.69877 203.8654 150.50391 210.51953 C 157.35764 217.17366 167.15337 220.5 179.88867 220.5 C 186.80058 220.5 192.83099 219.51084 197.99609 217.55078 L 186.64062 206.19531 C 184.65648 207.00916 182.40788 207.41797 179.88867 207.41797 C 174.0071 207.41797 169.55862 205.19976 166.54492 200.76367 C 163.64843 196.39348 162.17639 190.01632 162.10938 181.66406 L 143.30273 162.85742 z "
     id="path843" />
  <circle
     style="fill:none;stroke:#ffffff;stroke-width:28;stroke-opacity:1"
     cx="138"
     cy="138"
     r="124"
     id="circle2" />
  <line
     style="stroke:#ffffff;stroke-width:22;stroke-opacity:1"
     x1="45"
     y1="45"
     x2="231"
     y2="231"
     id="line4" />
</svg>
